PathFileType	4	(X/Y/Z)	D:\Temporary Files\修改scale文件\BD0001.trc
DataRate	CameraRate	NumFrames	NumMarkers	Units	OrigDataRate	OrigDataStartFrame	OrigNumFrames
200.000000	200.000000	4	38	mm	200.000000	0	804
Frame#	Time	Top.Head			L.Acromium			R.Acromium			Sternum			L.ASIS			R.ASIS			V.Sacral			R.Knee.Lat			R.Knee.Med			L.Knee.Lat			L.Knee.Med			L.Ankle.Lat			L.Toe.Tip			R.Heel			R.Ankle.Med			R.Ankle.Lat			L.Toe.Med			L.Toe.Lat			L.Heel			L.Ankle.Med			L.Shank1			L.Shank2			R.Toe.Tip			R.Toe.Med			R.Toe.Lat			L.PSIS			R.PSIS			R.iliac.crest			L.iliac.crest			L.Shank3			L.Shank4			R.Shank4			L.Thigh4			R.Thigh4			R.Heel.Lat			R.Heel.Med			L.Heel.Lat			L.Heel.Med			
		X1	Y1	Z1	X2	Y2	Z2	X3	Y3	Z3	X4	Y4	Z4	X5	Y5	Z5	X6	Y6	Z6	X7	Y7	Z7	X8	Y8	Z8	X9	Y9	Z9	X10	Y10	Z10	X11	Y11	Z11	X12	Y12	Z12	X13	Y13	Z13	X14	Y14	Z14	X15	Y15	Z15	X16	Y16	Z16	X17	Y17	Z17	X18	Y18	Z18	X19	Y19	Z19	X20	Y20	Z20	X21	Y21	Z21	X22	Y22	Z22	X23	Y23	Z23	X24	Y24	Z24	X25	Y25	Z25	X26	Y26	Z26	X27	Y27	Z27	X28	Y28	Z28	X29	Y29	Z29	X30	Y30	Z30	X31	Y31	Z31	X32	Y32	Z32	X33	Y33	Z33	X34	Y34	Z34	X35	Y35	Z35	X36	Y36	Z36	X37	Y37	Z37	X38	Y38	Z38	
1	0	554.361525743709	1012.17527652575	-594.915719170069	558.508717532599	843.44525930816	-489.399259874953	654.075546569674	836.654223499318	-651.857143144912	539.448766094105	812.340772844307	-609.86007847934	481.139056474592	545.260509307	-557.933653798054	555.118658082608	557.098723607512	-678.436350091624	603.404612980411	576.513707115403	-570.066452549428	600.060050721019	283.968903949403	-697.192663816844	567.200501912984	271.902215112681	-637.341197439078	507.926000907447	284.852379924977	-506.702320764404	529.74294763979	273.073437016422	-568.36340339507	542.30043428455	61.4622851363496	-483.564700893224	434.520795254023	33.8019415081247	-519.948475947591	660.666282349972	20.461663303703	-660.224810310004	592.131932762616	61.7343825669124	-666.86850805104	634.220979900847	62.6523503871841	-701.957338545009	470.402104464976	27.0676920648372	-543.021581514641	474.426412675989	27.7256987029546	-480.034972957127	598.73688402401	18.8120377576485	-487.048376758848	554.333628728524	62.4916785124366	-534.93761199832	497.21694425584	232.140980465457	-500.50622240552	495.830235024375	183.935612471047	-490.108832655684	523.762647870618	32.6856921410333	-763.711008349851	538.144239520738	26.6320818171517	-720.733445524212	589.84199241865	22.3932670454338	-762.365554052714	583.307626860793	575.708345766491	-544.713655341512	616.216533096624	576.74194237309	-597.595001612318	580.886593774193	591.290788002061	-671.497470309539	499.327192140805	591.604969318358	-538.584201716804	528.188129905228	236.776827674986	-479.392529676119	529.292015845774	185.301455953623	-469.520594368893	635.2593233324	189.699088748796	-710.061318376726	501.137873041027	360.869148835001	-498.750350002293	616.761127632364	339.649791405371	-687.318879066228	656.703337721756	19.1857408270305	-701.194244835837	612.763344014512	15.1048923219105	-658.314337333429	559.247021091393	13.340787160289	-466.417530916203	571.898837654805	16.3176509406422	-528.338238406022
2	0.005	718.106301728138	1311.17186009597	-770.663348553862	723.486983215515	1092.59676104447	-633.969236771843	847.286075939221	1083.80044643164	-844.419880706075	698.79588066474	1052.31039855232	-790.017201043533	623.26206026305	706.334318396136	-722.74708512011	719.100853743304	721.664977042737	-878.843837495611	781.642508485277	746.814272554046	-738.462072018697	777.313694896512	367.856994166924	-903.141835033154	734.744518467784	352.222627812811	-825.610390030592	657.984335154315	368.977462871977	-656.335001713929	686.231093547581	353.741140615443	-736.256043377706	702.494959868798	79.6196003521711	-626.409276985162	562.873369034458	43.7981607926492	-673.556654927225	855.822310544176	26.5080369760345	-855.254111370755	767.04352054694	79.9659612492265	-863.8549824058	821.578211866186	81.1634549869516	-909.311564138407	609.35132829869	35.0680028802488	-703.438582646973	614.571710618597	35.9160113310436	-621.835814721369	775.603821228735	24.3705986388317	-630.92236259173	718.082365636404	80.9555132161948	-692.9534432753	644.071159122648	300.71600210804	-648.385785369932	642.294525550787	238.271204324256	-634.884921013061	678.471605043827	42.3468908611507	-989.317613280175	697.110594150982	34.5014400736219	-933.635631708539	764.079701369922	29.0053502481075	-987.565299576538	755.611360145589	745.774089733869	-705.619138680921	798.2408165257	747.110764858407	-774.118939932884	752.473841742136	765.956276274712	-869.852772282067	646.81980322878	766.366973256511	-697.682214257474	684.208811673784	306.721109334829	-621.004379541135	685.64422904607	240.039133554137	-608.215111200053	822.909424774367	245.741922611005	-919.814697008795	649.165809969346	467.467000876846	-646.091116636273	798.947596152301	439.977719434414	-890.348014244907	850.689484474755	24.854241514577	-908.322932346611	793.772486882357	19.5670002601078	-852.775885094744	724.446093743064	17.2781357398021	-604.199155474427	740.836161206935	21.1439459255979	-684.407814413004
3	0.01	839.295730480026	1532.48145533168	-900.754670150442	845.595001759148	1277.01005689149	-740.977280951284	990.292811019356	1266.73009991826	-986.952399024865	816.73561649892	1229.93284231586	-923.368102999763	728.454303729053	825.559710016523	-844.737908126471	840.475443435794	843.472022975833	-1027.17841130397	913.564314129958	872.863763112608	-863.101313575511	908.507737126636	429.951939325294	-1055.57906434043	858.750190673482	411.674394400438	-964.960707797441	769.069436083783	431.224765462271	-767.044734293268	802.060655792545	413.451804161022	-860.525089031279	821.066795400688	93.0613142841263	-732.137097036192	657.880529115744	51.2060816481856	-787.253231931338	1000.26892048853	30.9853163498581	-999.608392546442	896.504607288193	93.4574540184549	-1009.65405980126	960.25778892432	94.8644126975913	-1062.78729813632	712.199554161642	40.9952393709064	-822.172305453035	718.303307110665	41.9782978514404	-726.791805428225	906.515258008011	28.4859969149373	-737.414063227772	839.283532993237	94.6238254473989	-809.909311315808	752.750918929987	351.474371645428	-757.865894876644	750.700783049429	278.490152663383	-742.043031378645	792.97496805902	49.5022568439376	-1156.31056677954	814.771543422384	40.3280489776099	-1091.21859902967	893.045111360899	33.8985825650948	-1154.24992084438	883.142019178091	871.653175181098	-824.714916224131	932.965253663481	873.212778178579	-904.772866607785	879.47310113854	895.237515806047	-1016.66599876959	755.983565412099	895.722084299828	-815.44294063485	799.686220277197	358.492907754248	-725.821769783229	801.372305085805	280.553758662743	-710.871302468791	961.798399985599	287.226772229958	-1075.06978004564	758.724508466966	546.364842409774	-755.156526474647	933.793485262348	514.235038752129	-1040.62297978611	994.270301396877	29.0510233595028	-1061.63013394096	927.749560837316	22.8701307731976	-996.708389427041	846.721083872485	20.1919351907058	-706.181667815741	865.878951741934	24.7199635338891	-799.924378513523
4	0.015	913.604204199119	1668.20295962361	-980.544621802061	920.473013881569	1390.10085463404	-806.60301743669	1077.99013406304	1378.91205339935	-1074.36538681256	889.057274753453	1338.86643048395	-1005.1513953339	792.961193072571	898.679005152345	-919.550715191703	914.908261855736	918.171235318452	-1118.14475205987	994.460828118032	950.161205414466	-939.533493671562	988.957366419123	468.036828653193	-1149.06217949785	934.790114695104	448.135255007822	-1050.41716008987	837.21638106414	469.371159851422	-834.876087576815	873.096020489806	450.073941535681	-936.734079069971	893.783494449909	101.30894249891	-796.971579088444	716.160035283542	55.7608581330305	-856.962551426406	1088.84991606456	33.7334742822027	-1088.13380428597	975.893151369118	101.728702181177	-1099.06149121008	1045.30365754829	103.263476692564	-1156.90641475774	775.284152404619	44.6395881785795	-894.971620463829	781.917422455886	45.6964272193729	-791.1555063314	986.796633602424	31.0107006200966	-802.720739689391	913.609736237478	103.007746541218	-881.630711231416	819.377715023045	382.604334209582	-825.035480434996	817.17902908835	303.156155960645	-807.757569406334	863.185815174828	53.895147470133	-1258.72675555285	886.925875030335	43.9038705517075	-1187.85657025651	972.134011771048	36.9002070709469	-1256.46835718341	961.346611806094	948.850821798892	-897.748921685123	1015.58029663993	950.546251536433	-984.892358932905	957.350919968716	974.518597599219	-1106.69554417826	822.921743612397	975.051153084908	-887.662521390941	870.498424334888	390.243905406655	-790.102892407016	872.344519918308	305.398375173918	-773.823977341582	1046.96726701717	312.671281190215	-1170.28325116115	825.901752421908	594.745367402287	-822.052123357458	1016.48446897392	559.772172126487	-1132.7804142366	1082.32016297884	31.6263139594787	-1155.6424326421	1009.91086816085	24.8965804104215	-1084.97406970343	921.707316779318	21.9798623002253	-768.723306900739	942.563360739825	26.9168713997795	-870.7633875969
